<svg width="808" height="504" viewBox="0 0 808 504" fill="none" xmlns="http://www.w3.org/2000/svg">
<g clip-path="url(#clip0_1151_3508)">
<path d="M922 382H392V383.544H922V382Z" fill="url(#paint0_linear_1151_3508)"/>
<path d="M677.303 283.561C678.124 283.966 679.061 284.128 679.986 284.026C680.91 283.923 681.779 283.561 682.473 282.989C683.167 282.416 683.653 281.661 683.866 280.824C684.079 279.988 684.008 279.112 683.662 278.315C683.755 277.89 683.821 277.586 683.914 277.161C685.691 275.632 687.923 274.627 690.323 274.275C692.724 273.923 695.184 274.239 697.388 275.185C699.591 276.13 701.439 277.661 702.693 279.58C703.948 281.5 704.552 283.722 704.428 285.96C703.866 298.583 704.542 312.205 695.442 322.382C736.974 291.089 755.911 237.781 743.228 189.836C737.004 181.84 734.101 171.218 736.892 161.592C740.394 164.732 747.221 163.889 746.178 158.452C745.618 156.303 745.039 154.161 744.479 152.012C768.4 143.405 774.646 176.201 746.31 189.553C748.609 198.669 749.868 207.98 750.066 217.337C753.265 208.9 758.591 201.284 765.605 195.115C772.395 189.478 781.375 186.163 789.728 182.38C799.893 177.766 811.175 186.914 807.173 196.681C800.406 195.882 795.618 203.34 801.758 207.347C790.973 224.048 770.293 234.664 749.282 234.832C747.157 253.889 740.652 272.309 730.199 288.865C743.621 270.046 769.597 275.464 790.125 274.663C791.487 274.504 792.87 274.715 794.104 275.269C795.339 275.822 796.372 276.696 797.077 277.781C797.783 278.867 798.13 280.119 798.077 281.384C798.024 282.649 797.573 283.872 796.779 284.905C794.079 284.758 791.369 284.86 788.69 285.208C787.43 285.38 786.259 285.907 785.337 286.717C784.415 287.527 783.787 288.58 783.539 289.732C783.292 290.884 783.436 292.079 783.954 293.152C784.472 294.225 785.336 295.124 786.43 295.726C768.422 310.948 740.518 314.22 718.618 304.507C712.143 312.027 704.838 318.907 696.821 325.034L664.262 310.724C664.318 310.339 664.391 309.949 664.458 309.569C667.381 311.068 670.493 312.232 673.723 313.034C670.25 300.825 666.379 293.674 677.302 283.561H677.303Z" fill="url(#paint1_linear_1151_3508)"/>
<path d="M619.771 254.68C619.176 255.341 618.375 255.817 617.477 256.043C616.578 256.27 615.626 256.237 614.749 255.948C613.872 255.659 613.113 255.128 612.573 254.428C612.034 253.728 611.742 252.892 611.735 252.033C611.476 251.672 611.29 251.413 611.03 251.052C608.759 250.254 606.281 250.099 603.914 250.608C601.546 251.117 599.398 252.266 597.743 253.908C596.089 255.55 595.004 257.61 594.628 259.824C594.251 262.038 594.601 264.306 595.631 266.336C601.316 277.831 606.262 290.682 618.853 296.942C567.588 282.406 528.242 239.622 520.374 190.807C522.866 181.237 521.21 170.389 514.687 162.445C512.728 166.572 506.06 168.165 504.802 162.767C504.442 160.582 504.102 158.397 503.741 156.212C478.066 156.561 485.698 189.106 517.403 191.617C519.003 200.858 521.647 209.92 525.291 218.655C518.877 211.954 510.829 206.752 501.809 203.479C493.214 200.619 483.542 200.672 474.258 200.075C462.956 199.336 456.25 211.733 463.952 219.386C469.893 216.293 477.378 221.534 473.33 227.382C490.151 239.098 513.646 241.736 533.174 234.585C542.938 251.495 556.499 266.292 572.952 277.989C552.823 265.229 530.982 279.281 511.643 285.678C510.316 286.005 509.122 286.681 508.205 287.623C507.289 288.566 506.689 289.733 506.48 290.984C506.271 292.235 506.461 293.515 507.028 294.669C507.594 295.822 508.512 296.798 509.67 297.478C512.111 296.403 514.662 295.555 517.285 294.945C518.523 294.667 519.823 294.747 521.009 295.177C522.194 295.606 523.206 296.363 523.907 297.344C524.608 298.325 524.962 299.482 524.922 300.655C524.881 301.829 524.448 302.963 523.682 303.901C546.587 311.735 573.768 305.06 590.077 288.448C599.15 293.161 608.729 296.991 618.661 299.878L642.961 275.301C642.752 274.964 642.524 274.627 642.307 274.299C640.213 276.704 637.807 278.864 635.143 280.73C633.366 268.215 634.025 260.246 619.772 254.68L619.771 254.68Z" fill="url(#paint2_linear_1151_3508)"/>
<path d="M626.025 150.829C626.951 150.742 627.827 150.396 628.532 149.835C629.238 149.275 629.74 148.528 629.97 147.696C630.2 146.863 630.147 145.986 629.818 145.183C629.489 144.379 628.9 143.689 628.131 143.204C627.951 142.804 627.822 142.517 627.643 142.117C628.193 139.934 629.438 137.952 631.218 136.426C632.997 134.9 635.231 133.898 637.632 133.55C640.034 133.201 642.493 133.522 644.695 134.471C646.897 135.42 648.742 136.953 649.993 138.875C657.159 149.644 665.957 160.604 664.557 173.73C680.112 126.402 663.598 72.4137 624.077 39.1322C614.075 35.6938 605.242 28.3682 601.738 18.9427C606.545 19.7494 611.702 15.5393 607.548 11.5622C605.784 10.0661 604.008 8.58552 602.244 7.0894C616.898 -12.3527 641.913 11.6614 626.465 37.3127C633.885 43.698 640.561 50.7811 646.384 58.4464C643.937 49.7981 643.753 40.7379 645.845 32.011C648.073 23.84 653.523 16.4718 658.171 9.03745C663.819 -0.0190678 678.716 1.77589 681.299 11.941C675.199 14.757 675.734 23.4094 683.255 23.5794C684.4 42.9881 673.652 62.4315 656.312 73.373C666.071 90.2851 671.809 108.921 673.143 128.038C672.906 105.516 697.746 96.66 714.302 85.4411C715.337 84.6094 716.612 84.0735 717.972 83.8986C719.331 83.7237 720.717 83.9175 721.959 84.4562C723.201 84.9949 724.247 85.8554 724.968 86.9326C725.689 88.0097 726.054 89.2571 726.019 90.5225C723.689 91.7895 721.501 93.2668 719.488 94.9326C718.546 95.7232 717.892 96.7631 717.616 97.9096C717.341 99.0562 717.456 100.253 717.947 101.337C718.438 102.421 719.281 103.338 720.36 103.962C721.438 104.587 722.7 104.889 723.972 104.827C718.227 126.72 697.041 143.782 672.988 146.977C672.16 156.548 670.256 166.015 667.305 175.223L631.624 180.082C631.437 179.734 631.262 179.372 631.088 179.022C634.421 178.764 637.708 178.13 640.874 177.135C630.608 168.786 623.071 164.839 626.024 150.829L626.025 150.829Z" fill="url(#paint3_linear_1151_3508)"/>
<path d="M661.912 140.28C645.667 140.28 636.856 138.449 633.779 134.542C631.064 131.095 632.884 126.546 634.992 121.28C636.507 117.495 638.224 113.204 638.224 108.958C638.224 88.3052 649.581 77.8331 671.98 77.8331C683.125 77.8331 695.091 83.2917 703.989 92.4351C712.079 100.747 716.109 110.696 715.046 119.729C714.174 127.138 710.435 132.01 703.277 135.062L702.858 135.241L702.739 134.83C702.121 132.704 701.075 130.704 699.655 128.934C699.517 131.712 698.757 134.434 697.424 136.928L697.348 137.071L697.183 137.114C689.081 139.242 679.466 139.818 671.995 140.083C668.358 140.213 664.998 140.279 661.912 140.28Z" fill="#2F2E41"/>
<path d="M666.34 169.055C665.717 167.368 664.667 165.841 663.276 164.603C661.886 163.365 660.195 162.45 658.344 161.935C656.494 161.419 654.537 161.318 652.635 161.64C650.734 161.962 648.943 162.697 647.411 163.785L593.978 193.241L577.258 155.624C578.67 153.714 579.39 151.44 579.315 149.129C579.239 146.817 578.371 144.588 576.836 142.759C575.301 140.931 573.177 139.598 570.769 138.951C568.362 138.304 565.794 138.377 563.434 139.16C561.074 139.942 559.043 141.393 557.633 143.305C556.223 145.217 555.506 147.492 555.585 149.803C555.663 152.114 556.534 154.343 558.071 156.169C559.608 157.996 561.734 159.327 564.142 159.971C565.173 170.819 570.9 219.303 590.824 217.54C607.571 216.059 649.161 190.52 662.078 181.665C664.145 180.25 665.671 178.266 666.437 176C667.203 173.734 667.169 171.302 666.34 169.055Z" fill="#FFB6B6"/>
<path d="M706.606 383H660.099L652.301 347.446L649.771 383H606.57C606.587 355.079 608.164 327.178 611.296 299.406L611.832 297.725L612.677 295.035L613.213 293.346L622.153 265.04L622.859 262.794H676.69C679.788 265.477 682.646 268.386 685.234 271.494C686.111 272.525 687.027 273.641 687.966 274.843C688.618 275.694 689.293 276.589 689.968 277.526C695.966 285.76 700.45 294.85 703.238 304.429V304.436C703.711 306.075 704.13 307.752 704.495 309.467V309.474C704.821 310.998 705.108 312.543 705.333 314.125C705.504 315.277 705.651 316.443 705.76 317.623C706.407 324.164 706.18 330.753 705.085 337.243L706.606 383Z" fill="#2F2E41"/>
<path d="M460.03 57.8999C463.05 56.8219 464.839 54.3776 464.026 52.4403C463.212 50.5031 460.105 49.8065 457.084 50.8845C454.064 51.9625 452.275 54.4068 453.088 56.3441C453.902 58.2813 457.009 58.9779 460.03 57.8999Z" fill="#E6E6E6"/>
<path d="M498.057 53.4021C501.077 52.3241 502.866 49.8798 502.053 47.9425C501.239 46.0053 498.132 45.3087 495.112 46.3867C492.091 47.4647 490.302 49.909 491.116 51.8462C491.929 53.7835 495.037 54.48 498.057 53.4021Z" fill="#3F3D56"/>
<path d="M456.732 87.8142C459.752 86.7362 461.541 84.2919 460.728 82.3547C459.914 80.4174 456.807 79.7209 453.786 80.7989C450.766 81.8768 448.977 84.3212 449.79 86.2584C450.604 88.1957 453.711 88.8922 456.732 87.8142Z" fill="#FF6584"/>
<path d="M445.731 101.01C447.116 100.707 447.857 98.9733 447.386 97.1368C446.914 95.3003 445.409 94.0566 444.023 94.359C442.638 94.6614 441.897 96.3953 442.368 98.2318C442.84 100.068 444.345 101.312 445.731 101.01Z" fill="#E6E6E6"/>
<path d="M445.504 123.35C446.89 123.047 447.631 121.314 447.16 119.477C446.688 117.641 445.183 116.397 443.797 116.699C442.412 117.002 441.671 118.736 442.142 120.572C442.613 122.409 444.119 123.652 445.504 123.35Z" fill="#3F3D56"/>
<path d="M478.88 77.078C480.265 76.7757 481.006 75.0417 480.535 73.2052C480.063 71.3687 478.558 70.1251 477.173 70.4275C475.787 70.7299 475.046 72.4638 475.517 74.3003C475.989 76.1368 477.494 77.3804 478.88 77.078Z" fill="#E6E6E6"/>
<path d="M458.852 72.5937C460.237 72.2913 460.978 70.5573 460.507 68.7208C460.036 66.8843 458.53 65.6407 457.145 65.9431C455.759 66.2455 455.018 67.9794 455.489 69.8159C455.961 71.6524 457.466 72.896 458.852 72.5937Z" fill="#FF6584"/>
<path d="M480.08 52.0221C481.466 51.7197 482.207 49.9858 481.735 48.1493C481.264 46.3128 479.758 45.0692 478.373 45.3715C476.987 45.6739 476.246 47.4078 476.718 49.2443C477.189 51.0808 478.694 52.3245 480.08 52.0221Z" fill="#3F3D56"/>
<path d="M489.953 206.643C491.413 205.061 490.598 202.21 488.131 200.274C485.665 198.339 482.482 198.052 481.022 199.634C479.562 201.215 480.377 204.067 482.843 206.002C485.309 207.938 488.492 208.225 489.953 206.643Z" fill="#E6E6E6"/>
<path d="M467.557 177.952C469.017 176.37 468.202 173.518 465.735 171.583C463.269 169.647 460.086 169.36 458.626 170.942C457.166 172.524 457.981 175.376 460.447 177.311C462.913 179.247 466.096 179.533 467.557 177.952Z" fill="#3F3D56"/>
<path d="M520.053 195.073C521.513 193.491 520.698 190.64 518.231 188.704C515.765 186.769 512.582 186.482 511.122 188.064C509.662 189.646 510.477 192.497 512.943 194.433C515.409 196.368 518.592 196.655 520.053 195.073Z" fill="#FF6584"/>
<path d="M535.006 195.39C536.533 194.133 537.002 192.321 536.054 191.341C535.106 190.362 533.1 190.587 531.573 191.843C530.046 193.1 529.576 194.913 530.524 195.892C531.472 196.872 533.479 196.647 535.006 195.39Z" fill="#E6E6E6"/>
<path d="M556.42 184.936C557.947 183.68 558.416 181.867 557.468 180.888C556.52 179.908 554.513 180.133 552.986 181.389C551.459 182.646 550.99 184.459 551.938 185.438C552.886 186.418 554.893 186.193 556.42 184.936Z" fill="#3F3D56"/>
<path d="M496.398 179.907C497.925 178.651 498.395 176.838 497.447 175.858C496.498 174.879 494.492 175.104 492.965 176.36C491.438 177.617 490.969 179.43 491.917 180.409C492.865 181.389 494.871 181.164 496.398 179.907Z" fill="#E6E6E6"/>
<path d="M501.658 198.282C503.185 197.025 503.654 195.212 502.706 194.233C501.758 193.253 499.751 193.478 498.224 194.735C496.697 195.991 496.228 197.804 497.176 198.783C498.124 199.763 500.131 199.538 501.658 198.282Z" fill="#FF6584"/>
<path d="M471.931 190.865C473.458 189.608 473.927 187.795 472.979 186.816C472.031 185.836 470.024 186.061 468.497 187.318C466.97 188.574 466.501 190.387 467.449 191.366C468.397 192.346 470.404 192.121 471.931 190.865Z" fill="#3F3D56"/>
<path d="M640.41 22.6267C642.432 21.7099 642.912 18.7945 641.483 16.1149C640.054 13.4352 637.256 12.0062 635.234 12.9229C633.213 13.8397 632.732 16.7551 634.162 19.4347C635.591 22.1144 638.389 23.5435 640.41 22.6267Z" fill="#E6E6E6"/>
<path d="M648.602 57.1605C650.623 56.2437 651.103 53.3283 649.674 50.6486C648.245 47.969 645.447 46.54 643.426 47.4567C641.404 48.3735 640.924 51.2889 642.353 53.9685C643.782 56.6481 646.58 58.0772 648.602 57.1605Z" fill="#3F3D56"/>
<path d="M607.803 22.2185C609.824 21.3018 610.305 18.3864 608.875 15.7067C607.446 13.0271 604.648 11.598 602.627 12.5148C600.605 13.4315 600.125 16.347 601.554 19.0266C602.983 21.7062 605.781 23.1353 607.803 22.2185Z" fill="#FF6584"/>
<path d="M590.663 11.2594C592.606 10.6654 593.818 9.17378 593.37 7.92762C592.922 6.68146 590.984 6.1527 589.041 6.74662C587.098 7.34055 585.886 8.83224 586.334 10.0784C586.782 11.3246 588.721 11.8533 590.663 11.2594Z" fill="#E6E6E6"/>
<path d="M566.508 13.0089C568.451 12.415 569.662 10.9233 569.214 9.67718C568.766 8.43102 566.828 7.90229 564.885 8.49621C562.942 9.09013 561.731 10.5818 562.179 11.828C562.627 13.0741 564.565 13.6029 566.508 13.0089Z" fill="#3F3D56"/>
<path d="M619.423 39.6099C621.366 39.016 622.577 37.5243 622.129 36.2781C621.681 35.032 619.743 34.5032 617.8 35.0971C615.857 35.6911 614.646 37.1828 615.094 38.4289C615.542 39.6751 617.48 40.2038 619.423 39.6099Z" fill="#E6E6E6"/>
<path d="M622.513 20.8214C624.456 20.2274 625.667 18.7358 625.219 17.4896C624.771 16.2434 622.833 15.7147 620.89 16.3086C618.947 16.9026 617.736 18.3942 618.184 19.6404C618.632 20.8866 620.57 21.4153 622.513 20.8214Z" fill="#FF6584"/>
<path d="M646.598 38.5169C648.541 37.923 649.752 36.4313 649.304 35.1852C648.856 33.939 646.918 33.4103 644.975 34.0042C643.032 34.5981 641.821 36.0898 642.269 37.336C642.717 38.5821 644.655 39.1109 646.598 38.5169Z" fill="#3F3D56"/>
<path d="M654.056 146.029L679.676 144.812L691.576 162.15C691.576 162.15 713.967 165.602 712.415 189.929C710.863 214.257 685.172 235.604 685.172 235.604L686.27 248.273L684.363 253.298L684.608 256.119L687.21 259.107L687.478 262.197L685.172 267.087L688.307 271.768L622.398 265.88L619.988 257.785L623.503 253.438L621.54 247.768L624.492 242.314L626.031 224.991C626.031 224.991 609.189 201.66 628.524 184.087L636.284 171.923L644.967 162.156L654.056 146.029Z" fill="#661966"/>
<path d="M666.792 141.134C681.786 141.134 693.941 129.927 693.941 116.102C693.941 102.277 681.786 91.0701 666.792 91.0701C651.799 91.0701 639.644 102.277 639.644 116.102C639.644 129.927 651.799 141.134 666.792 141.134Z" fill="#FFB6B6"/>
<path d="M663.158 114.585C660.818 114.585 658.48 114.524 656.143 114.402L655.726 114.381L655.781 113.998C656.125 111.609 655.931 109.18 655.211 106.863C653.989 109.501 652.171 111.869 649.878 113.808L649.748 113.918L649.574 113.9C643.227 113.26 636.939 112.203 630.755 110.736L630.519 110.68L630.471 110.459C630.01 108.368 629.77 106.24 629.757 104.107C629.757 97.4409 632.378 91.8307 637.138 88.3094C642.318 84.4764 649.744 83.2976 658.054 84.9883H684.629C687.551 84.9913 690.351 86.0627 692.417 87.9675C694.483 89.8723 695.645 92.4549 695.648 95.1487V110.665L695.359 110.735C684.848 113.282 674.026 114.576 663.158 114.585Z" fill="#2F2E41"/>
<path d="M477.914 86.7411C476.724 87.1423 475.756 87.9622 475.221 89.0209C474.686 90.0797 474.629 91.2908 475.061 92.3886L503.729 164.919C504.164 166.016 505.054 166.909 506.202 167.403C507.35 167.896 508.664 167.949 509.854 167.55L621.121 130.161C622.31 129.76 623.279 128.94 623.814 127.881C624.349 126.822 624.406 125.611 623.974 124.513L595.305 51.9825C594.87 50.8856 593.981 49.9926 592.833 49.4994C591.685 49.0062 590.371 48.9532 589.18 49.3518L477.914 86.7411Z" fill="#CCCCCC"/>
<path d="M579.71 140.078L511.603 162.964C510.322 163.393 508.908 163.336 507.672 162.805C506.436 162.274 505.479 161.313 505.011 160.133L479.009 94.3476C478.544 93.1661 478.606 91.8626 479.181 90.7231C479.757 89.5836 480.799 88.7011 482.08 88.2694L587.059 52.9929C588.34 52.5638 589.754 52.6209 590.99 53.1517C592.226 53.6824 593.183 54.6436 593.651 55.8242L606.215 87.6108C610.232 97.8098 609.697 109.062 604.728 118.898C599.759 128.734 590.762 136.351 579.71 140.078Z" fill="white"/>
<path d="M743.691 124.843L714.966 188.223C713.741 190.905 711.42 193.035 708.507 194.153C705.593 195.272 702.319 195.289 699.391 194.202C697.877 193.639 696.502 192.798 695.352 191.73C694.201 190.661 693.299 189.388 692.699 187.988C692.1 186.587 691.816 185.089 691.865 183.584C691.914 182.079 692.295 180.599 692.985 179.235L725.012 114.241L742.668 73.9928C741.142 72.5898 740.122 70.7878 739.745 68.8316C739.369 66.8753 739.655 64.8597 740.565 63.0586C741.474 61.2575 742.963 59.7582 744.829 58.7643C746.694 57.7705 748.847 57.3304 750.993 57.5037C753.14 57.677 755.176 58.4555 756.826 59.7332C758.476 61.0109 759.66 62.726 760.216 64.6455C760.772 66.565 760.673 68.5957 759.934 70.4619C759.195 72.328 757.85 73.9391 756.084 75.0762L743.691 124.843Z" fill="#FFB6B6"/>
<path d="M547 78C530.433 78 517 91.4325 517 108C517 124.568 530.433 138 547 138C563.568 138 577 124.568 577 108C577 91.4325 563.568 78 547 78ZM557.815 123.665L547 117.88L536.185 123.662L538.342 111.59L529.5 103.092L541.65 101.415L547 90.3775L552.35 101.415L564.5 103.092L555.658 111.592L557.815 123.665Z" fill="url(#paint4_linear_1151_3508)"/>
</g>
<g filter="url(#filter0_d_1151_3508)">
<path d="M25 434C25 450.569 38.4314 464 55 464L495 464C511.569 464 525 450.569 525 434V387.067C525 381.838 520.76 377.598 515.531 377.598H514.568C509.87 377.598 506.061 373.789 506.061 369.091C506.061 362.69 499.257 358.582 493.592 361.564L468.704 374.664C465.044 376.591 460.969 377.598 456.833 377.598L55 377.598C38.4315 377.598 25 391.029 25 407.598V434Z" fill="url(#paint5_linear_1151_3508)"/>
</g>
<path d="M67.8061 411.069C69.2941 411.069 70.4461 411.225 71.2621 411.537C72.0781 411.825 72.7741 412.137 73.3501 412.473C73.6381 412.641 73.8661 412.773 74.0341 412.869C74.2261 412.941 74.4061 412.977 74.5741 412.977C74.8141 412.977 74.9821 412.845 75.0781 412.581C75.1981 412.317 75.2941 411.921 75.3661 411.393H76.1941C76.1701 411.873 76.1341 412.437 76.0861 413.085C76.0621 413.733 76.0381 414.597 76.0141 415.677C76.0141 416.733 76.0141 418.137 76.0141 419.889H75.1861C75.0901 418.593 74.7901 417.345 74.2861 416.145C73.7821 414.945 73.0861 413.949 72.1981 413.157C71.3341 412.365 70.2661 411.969 68.9941 411.969C67.8901 411.969 66.9781 412.281 66.2581 412.905C65.5381 413.505 65.1781 414.369 65.1781 415.497C65.1781 416.409 65.4061 417.201 65.8621 417.873C66.3181 418.521 67.0021 419.181 67.9141 419.853C68.8501 420.525 70.0261 421.353 71.4421 422.337C72.5701 423.081 73.5781 423.825 74.4661 424.569C75.3541 425.313 76.0621 426.153 76.5901 427.089C77.1421 428.025 77.4181 429.153 77.4181 430.473C77.4181 432.057 76.9861 433.377 76.1221 434.433C75.2581 435.465 74.1181 436.245 72.7021 436.773C71.2861 437.277 69.7381 437.529 68.0581 437.529C66.4981 437.529 65.2501 437.385 64.3141 437.097C63.4021 436.809 62.6221 436.509 61.9741 436.197C61.4461 435.861 61.0381 435.693 60.7501 435.693C60.5101 435.693 60.3301 435.825 60.2101 436.089C60.1141 436.353 60.0301 436.749 59.9581 437.277H59.1301C59.1781 436.677 59.2021 435.981 59.2021 435.189C59.2261 434.373 59.2381 433.329 59.2381 432.057C59.2621 430.785 59.2741 429.165 59.2741 427.197H60.1021C60.1981 428.829 60.4621 430.353 60.8941 431.769C61.3501 433.185 62.0341 434.337 62.9461 435.225C63.8821 436.089 65.1181 436.521 66.6541 436.521C67.5181 436.521 68.2741 436.377 68.9221 436.089C69.5701 435.801 70.0861 435.381 70.4701 434.829C70.8541 434.253 71.0461 433.557 71.0461 432.741C71.0461 431.733 70.8181 430.857 70.3621 430.113C69.9061 429.369 69.2821 428.673 68.4901 428.025C67.6981 427.353 66.7741 426.681 65.7181 426.009C64.5901 425.265 63.5341 424.509 62.5501 423.741C61.5661 422.973 60.7741 422.121 60.1741 421.185C59.5981 420.225 59.3101 419.073 59.3101 417.729C59.3101 416.193 59.7061 414.933 60.4981 413.949C61.2901 412.965 62.3341 412.245 63.6301 411.789C64.9501 411.309 66.3421 411.069 67.8061 411.069ZM89.1337 417.873C91.2457 417.873 92.9017 418.497 94.1017 419.745C95.3017 420.993 95.9017 423.045 95.9017 425.901H84.3457L84.3097 425.217H91.0057C91.0537 424.041 91.0057 422.961 90.8617 421.977C90.7177 420.969 90.4777 420.165 90.1417 419.565C89.8297 418.965 89.4097 418.665 88.8817 418.665C88.1617 418.665 87.5497 419.181 87.0457 420.213C86.5417 421.245 86.2297 422.997 86.1097 425.469L86.2537 425.721C86.2057 425.985 86.1817 426.261 86.1817 426.549C86.1817 426.813 86.1817 427.101 86.1817 427.413C86.1817 429.069 86.3977 430.389 86.8297 431.373C87.2857 432.357 87.8497 433.053 88.5217 433.461C89.1937 433.869 89.8897 434.073 90.6097 434.073C91.0177 434.073 91.4737 434.013 91.9777 433.893C92.4817 433.773 93.0097 433.521 93.5617 433.137C94.1137 432.753 94.6417 432.189 95.1457 431.445L95.7577 431.661C95.4937 432.597 95.0377 433.521 94.3897 434.433C93.7657 435.321 92.9617 436.065 91.9777 436.665C90.9937 437.241 89.8057 437.529 88.4137 437.529C86.8297 437.529 85.4137 437.205 84.1657 436.557C82.9177 435.885 81.9217 434.841 81.1777 433.425C80.4577 431.985 80.0977 430.113 80.0977 427.809C80.0977 425.529 80.4937 423.657 81.2857 422.193C82.0777 420.729 83.1577 419.649 84.5257 418.953C85.8937 418.233 87.4297 417.873 89.1337 417.873ZM105.754 408.873V420.897C106.354 419.793 107.146 419.013 108.13 418.557C109.138 418.101 110.29 417.873 111.586 417.873C112.642 417.873 113.482 418.005 114.106 418.269C114.754 418.533 115.246 418.869 115.582 419.277C115.966 419.733 116.242 420.321 116.41 421.041C116.578 421.761 116.662 422.733 116.662 423.957V433.677C116.662 434.685 116.818 435.369 117.13 435.729C117.466 436.089 118.03 436.269 118.822 436.269V437.025C118.366 437.001 117.658 436.977 116.698 436.953C115.762 436.905 114.838 436.881 113.926 436.881C112.966 436.881 112.03 436.905 111.118 436.953C110.206 436.977 109.51 437.001 109.03 437.025V436.269C109.702 436.269 110.17 436.089 110.434 435.729C110.698 435.369 110.83 434.685 110.83 433.677V422.229C110.83 421.677 110.77 421.209 110.65 420.825C110.53 420.417 110.326 420.117 110.038 419.925C109.774 419.709 109.378 419.601 108.85 419.601C108.298 419.601 107.782 419.745 107.302 420.033C106.846 420.297 106.474 420.693 106.186 421.221C105.898 421.725 105.754 422.313 105.754 422.985V433.677C105.754 434.685 105.886 435.369 106.15 435.729C106.438 436.089 106.906 436.269 107.554 436.269V437.025C107.122 437.001 106.474 436.977 105.61 436.953C104.746 436.905 103.858 436.881 102.946 436.881C101.986 436.881 101.002 436.905 99.9943 436.953C99.0103 436.977 98.2663 437.001 97.7623 437.025V436.269C98.5543 436.269 99.1063 436.089 99.4183 435.729C99.7543 435.369 99.9223 434.685 99.9223 433.677V413.193C99.9223 412.113 99.7663 411.321 99.4543 410.817C99.1663 410.289 98.6023 410.025 97.7623 410.025V409.269C98.5303 409.341 99.2743 409.377 99.9943 409.377C101.098 409.377 102.13 409.341 103.09 409.269C104.05 409.173 104.938 409.041 105.754 408.873ZM129.623 417.873C131.735 417.873 133.391 418.497 134.591 419.745C135.791 420.993 136.391 423.045 136.391 425.901H124.835L124.799 425.217H131.495C131.543 424.041 131.495 422.961 131.351 421.977C131.207 420.969 130.967 420.165 130.631 419.565C130.319 418.965 129.899 418.665 129.371 418.665C128.651 418.665 128.039 419.181 127.535 420.213C127.031 421.245 126.719 422.997 126.599 425.469L126.743 425.721C126.695 425.985 126.671 426.261 126.671 426.549C126.671 426.813 126.671 427.101 126.671 427.413C126.671 429.069 126.887 430.389 127.319 431.373C127.775 432.357 128.339 433.053 129.011 433.461C129.683 433.869 130.379 434.073 131.099 434.073C131.507 434.073 131.963 434.013 132.467 433.893C132.971 433.773 133.499 433.521 134.051 433.137C134.603 432.753 135.131 432.189 135.635 431.445L136.247 431.661C135.983 432.597 135.527 433.521 134.879 434.433C134.255 435.321 133.451 436.065 132.467 436.665C131.483 437.241 130.295 437.529 128.903 437.529C127.319 437.529 125.903 437.205 124.655 436.557C123.407 435.885 122.411 434.841 121.667 433.425C120.947 431.985 120.587 430.113 120.587 427.809C120.587 425.529 120.983 423.657 121.775 422.193C122.567 420.729 123.647 419.649 125.015 418.953C126.383 418.233 127.919 417.873 129.623 417.873ZM164.831 408.873V433.065C164.831 434.145 164.987 434.949 165.299 435.477C165.635 435.981 166.199 436.233 166.991 436.233V436.989C166.247 436.917 165.503 436.881 164.759 436.881C163.679 436.881 162.659 436.917 161.699 436.989C160.739 437.061 159.839 437.193 158.999 437.385V413.193C158.999 412.113 158.843 411.321 158.531 410.817C158.243 410.289 157.679 410.025 156.839 410.025V409.269C157.607 409.341 158.351 409.377 159.071 409.377C160.175 409.377 161.207 409.341 162.167 409.269C163.127 409.173 164.015 409.041 164.831 408.873ZM155.147 417.873C156.203 417.873 157.115 418.029 157.883 418.341C158.651 418.629 159.287 419.121 159.791 419.817L159.359 420.177C159.047 419.769 158.663 419.469 158.207 419.277C157.775 419.085 157.319 418.989 156.839 418.989C155.687 418.989 154.787 419.709 154.139 421.149C153.515 422.565 153.203 424.749 153.203 427.701C153.203 429.765 153.323 431.397 153.563 432.597C153.827 433.773 154.175 434.601 154.607 435.081C155.063 435.561 155.567 435.801 156.119 435.801C156.863 435.801 157.523 435.525 158.099 434.973C158.699 434.397 159.011 433.641 159.035 432.705L159.143 434.217C158.711 435.321 158.111 436.149 157.343 436.701C156.599 437.253 155.639 437.529 154.463 437.529C153.071 437.529 151.811 437.181 150.683 436.485C149.579 435.789 148.703 434.721 148.055 433.281C147.431 431.817 147.119 429.921 147.119 427.593C147.119 425.409 147.455 423.609 148.127 422.193C148.823 420.753 149.771 419.673 150.971 418.953C152.195 418.233 153.587 417.873 155.147 417.873ZM177.946 417.873C180.058 417.873 181.714 418.497 182.914 419.745C184.114 420.993 184.714 423.045 184.714 425.901H173.158L173.122 425.217H179.818C179.866 424.041 179.818 422.961 179.674 421.977C179.53 420.969 179.29 420.165 178.954 419.565C178.642 418.965 178.222 418.665 177.694 418.665C176.974 418.665 176.362 419.181 175.858 420.213C175.354 421.245 175.042 422.997 174.922 425.469L175.066 425.721C175.018 425.985 174.994 426.261 174.994 426.549C174.994 426.813 174.994 427.101 174.994 427.413C174.994 429.069 175.21 430.389 175.642 431.373C176.098 432.357 176.662 433.053 177.334 433.461C178.006 433.869 178.702 434.073 179.422 434.073C179.83 434.073 180.286 434.013 180.79 433.893C181.294 433.773 181.822 433.521 182.374 433.137C182.926 432.753 183.454 432.189 183.958 431.445L184.57 431.661C184.306 432.597 183.85 433.521 183.202 434.433C182.578 435.321 181.774 436.065 180.79 436.665C179.806 437.241 178.618 437.529 177.226 437.529C175.642 437.529 174.226 437.205 172.978 436.557C171.73 435.885 170.734 434.841 169.99 433.425C169.27 431.985 168.91 430.113 168.91 427.809C168.91 425.529 169.306 423.657 170.098 422.193C170.89 420.729 171.97 419.649 173.338 418.953C174.706 418.233 176.242 417.873 177.946 417.873ZM191.579 408.981C192.707 408.981 193.583 409.233 194.207 409.737C194.855 410.241 195.179 410.973 195.179 411.933C195.179 412.893 194.855 413.625 194.207 414.129C193.583 414.633 192.707 414.885 191.579 414.885C190.451 414.885 189.563 414.633 188.915 414.129C188.291 413.625 187.979 412.893 187.979 411.933C187.979 410.973 188.291 410.241 188.915 409.737C189.563 409.233 190.451 408.981 191.579 408.981ZM194.747 417.981V433.677C194.747 434.685 194.903 435.369 195.215 435.729C195.551 436.089 196.115 436.269 196.907 436.269V437.025C196.427 437.001 195.719 436.977 194.783 436.953C193.847 436.905 192.899 436.881 191.939 436.881C190.979 436.881 189.995 436.905 188.987 436.953C188.003 436.977 187.259 437.001 186.755 437.025V436.269C187.547 436.269 188.099 436.089 188.411 435.729C188.747 435.369 188.915 434.685 188.915 433.677V422.301C188.915 421.221 188.759 420.429 188.447 419.925C188.135 419.397 187.571 419.133 186.755 419.133V418.377C187.523 418.449 188.267 418.485 188.987 418.485C190.067 418.485 191.087 418.449 192.047 418.377C193.031 418.281 193.931 418.149 194.747 417.981ZM212.28 417.873C213.336 417.873 214.176 418.005 214.8 418.269C215.448 418.533 215.94 418.869 216.276 419.277C216.66 419.733 216.936 420.321 217.104 421.041C217.296 421.761 217.392 422.733 217.392 423.957V433.677C217.392 434.685 217.548 435.369 217.86 435.729C218.196 436.089 218.76 436.269 219.552 436.269V437.025C219.072 437.001 218.352 436.977 217.392 436.953C216.456 436.905 215.544 436.881 214.656 436.881C213.672 436.881 212.724 436.905 211.812 436.953C210.9 436.977 210.216 437.001 209.76 437.025V436.269C210.432 436.269 210.9 436.089 211.164 435.729C211.428 435.369 211.56 434.685 211.56 433.677V422.229C211.56 421.677 211.5 421.209 211.38 420.825C211.26 420.417 211.056 420.117 210.768 419.925C210.48 419.709 210.072 419.601 209.544 419.601C208.992 419.601 208.476 419.745 207.996 420.033C207.54 420.321 207.168 420.729 206.88 421.257C206.616 421.761 206.484 422.337 206.484 422.985V433.677C206.484 434.685 206.616 435.369 206.88 435.729C207.144 436.089 207.612 436.269 208.284 436.269V437.025C207.828 437.001 207.168 436.977 206.304 436.953C205.44 436.905 204.564 436.881 203.676 436.881C202.692 436.881 201.708 436.905 200.724 436.953C199.74 436.977 198.996 437.001 198.492 437.025V436.269C199.284 436.269 199.836 436.089 200.148 435.729C200.484 435.369 200.652 434.685 200.652 433.677V422.301C200.652 421.221 200.496 420.429 200.184 419.925C199.872 419.397 199.308 419.133 198.492 419.133V418.377C199.26 418.449 200.004 418.485 200.724 418.485C201.804 418.485 202.824 418.449 203.784 418.377C204.768 418.281 205.668 418.149 206.484 417.981V420.897C207.06 419.793 207.84 419.013 208.824 418.557C209.832 418.101 210.984 417.873 212.28 417.873ZM230.313 417.873C232.425 417.873 234.081 418.497 235.281 419.745C236.481 420.993 237.081 423.045 237.081 425.901H225.525L225.489 425.217H232.185C232.233 424.041 232.185 422.961 232.041 421.977C231.897 420.969 231.657 420.165 231.321 419.565C231.009 418.965 230.589 418.665 230.061 418.665C229.341 418.665 228.729 419.181 228.225 420.213C227.721 421.245 227.409 422.997 227.289 425.469L227.433 425.721C227.385 425.985 227.361 426.261 227.361 426.549C227.361 426.813 227.361 427.101 227.361 427.413C227.361 429.069 227.577 430.389 228.009 431.373C228.465 432.357 229.029 433.053 229.701 433.461C230.373 433.869 231.069 434.073 231.789 434.073C232.197 434.073 232.653 434.013 233.157 433.893C233.661 433.773 234.189 433.521 234.741 433.137C235.293 432.753 235.821 432.189 236.325 431.445L236.937 431.661C236.673 432.597 236.217 433.521 235.569 434.433C234.945 435.321 234.141 436.065 233.157 436.665C232.173 437.241 230.985 437.529 229.593 437.529C228.009 437.529 226.593 437.205 225.345 436.557C224.097 435.885 223.101 434.841 222.357 433.425C221.637 431.985 221.277 430.113 221.277 427.809C221.277 425.529 221.673 423.657 222.465 422.193C223.257 420.729 224.337 419.649 225.705 418.953C227.073 418.233 228.609 417.873 230.313 417.873ZM267.393 411.537C267.297 412.665 267.225 413.757 267.177 414.813C267.153 415.869 267.141 416.673 267.141 417.225C267.141 417.705 267.153 418.173 267.177 418.629C267.201 419.085 267.225 419.457 267.249 419.745H266.421C266.157 417.873 265.725 416.397 265.125 415.317C264.549 414.237 263.829 413.481 262.965 413.049C262.125 412.593 261.189 412.365 260.157 412.365H259.185C258.537 412.365 258.033 412.425 257.673 412.545C257.337 412.641 257.109 412.857 256.989 413.193C256.893 413.529 256.845 414.057 256.845 414.777V433.785C256.845 434.481 256.893 435.009 256.989 435.369C257.109 435.705 257.337 435.933 257.673 436.053C258.033 436.149 258.537 436.197 259.185 436.197H260.661C261.597 436.197 262.485 435.957 263.325 435.477C264.189 434.973 264.957 434.133 265.629 432.957C266.301 431.757 266.805 430.137 267.141 428.097H267.969C267.897 428.913 267.861 429.969 267.861 431.265C267.861 431.841 267.873 432.657 267.897 433.713C267.921 434.769 267.993 435.873 268.113 437.025C266.889 436.977 265.509 436.953 263.973 436.953C262.437 436.929 261.069 436.917 259.869 436.917C259.245 436.917 258.453 436.917 257.493 436.917C256.533 436.917 255.489 436.929 254.361 436.953C253.233 436.953 252.093 436.965 250.941 436.989C249.789 436.989 248.709 437.001 247.701 437.025V436.305C248.445 436.257 248.997 436.161 249.357 436.017C249.741 435.873 249.993 435.585 250.113 435.153C250.257 434.721 250.329 434.073 250.329 433.209V415.353C250.329 414.465 250.257 413.817 250.113 413.409C249.993 412.977 249.741 412.689 249.357 412.545C248.997 412.377 248.445 412.281 247.701 412.257V411.537C248.733 411.561 249.813 411.585 250.941 411.609C252.093 411.609 253.221 411.621 254.325 411.645C255.453 411.645 256.497 411.645 257.457 411.645C258.441 411.645 259.245 411.645 259.869 411.645C260.973 411.645 262.221 411.645 263.613 411.645C265.029 411.621 266.289 411.585 267.393 411.537ZM261.957 423.849C261.957 423.849 261.957 423.969 261.957 424.209C261.957 424.449 261.957 424.569 261.957 424.569H255.765C255.765 424.569 255.765 424.449 255.765 424.209C255.765 423.969 255.765 423.849 255.765 423.849H261.957ZM263.001 419.097C262.905 420.465 262.857 421.509 262.857 422.229C262.881 422.949 262.893 423.609 262.893 424.209C262.893 424.809 262.905 425.469 262.929 426.189C262.953 426.909 263.013 427.953 263.109 429.321H262.281C262.161 428.457 261.909 427.665 261.525 426.945C261.141 426.225 260.625 425.649 259.977 425.217C259.329 424.785 258.537 424.569 257.601 424.569V423.849C258.297 423.849 258.909 423.705 259.437 423.417C259.965 423.105 260.409 422.709 260.769 422.229C261.153 421.749 261.465 421.233 261.705 420.681C261.945 420.129 262.101 419.601 262.173 419.097H263.001ZM283.354 417.873C284.17 417.873 284.818 418.053 285.298 418.413C285.778 418.749 286.126 419.193 286.342 419.745C286.558 420.273 286.666 420.801 286.666 421.329C286.666 422.313 286.378 423.105 285.802 423.705C285.25 424.305 284.518 424.605 283.606 424.605C282.646 424.605 281.914 424.389 281.41 423.957C280.906 423.501 280.654 422.901 280.654 422.157C280.654 421.413 280.81 420.801 281.122 420.321C281.458 419.841 281.866 419.433 282.346 419.097C281.986 419.049 281.638 419.097 281.302 419.241C280.918 419.337 280.558 419.517 280.222 419.781C279.886 420.045 279.598 420.357 279.358 420.717C279.118 421.077 278.926 421.473 278.782 421.905C278.662 422.313 278.602 422.733 278.602 423.165V433.317C278.602 434.469 278.854 435.249 279.358 435.657C279.886 436.065 280.714 436.269 281.842 436.269V437.025C281.29 437.001 280.474 436.977 279.394 436.953C278.314 436.905 277.198 436.881 276.046 436.881C275.014 436.881 273.97 436.905 272.914 436.953C271.882 436.977 271.114 437.001 270.61 437.025V436.269C271.402 436.269 271.954 436.089 272.266 435.729C272.602 435.369 272.77 434.685 272.77 433.677V422.301C272.77 421.221 272.614 420.429 272.302 419.925C271.99 419.397 271.426 419.133 270.61 419.133V418.377C271.378 418.449 272.122 418.485 272.842 418.485C273.922 418.485 274.942 418.449 275.902 418.377C276.886 418.281 277.786 418.149 278.602 417.981V420.933C278.89 420.309 279.262 419.769 279.718 419.313C280.198 418.857 280.738 418.509 281.338 418.269C281.962 418.005 282.634 417.873 283.354 417.873ZM297.269 408.873C298.181 408.873 298.961 408.993 299.609 409.233C300.281 409.449 300.857 409.749 301.337 410.133C301.697 410.397 301.997 410.781 302.237 411.285C302.501 411.765 302.633 412.329 302.633 412.977C302.633 413.673 302.369 414.297 301.841 414.849C301.337 415.401 300.677 415.677 299.861 415.677C298.973 415.677 298.253 415.437 297.701 414.957C297.149 414.453 296.873 413.769 296.873 412.905C296.873 412.257 297.065 411.669 297.449 411.141C297.833 410.589 298.409 410.205 299.177 409.989C299.105 409.869 298.973 409.773 298.781 409.701C298.589 409.605 298.337 409.557 298.025 409.557C297.593 409.557 297.233 409.629 296.945 409.773C296.657 409.917 296.417 410.121 296.225 410.385C295.985 410.697 295.805 411.141 295.685 411.717C295.589 412.293 295.541 413.169 295.541 414.345V418.413H299.393V419.133H295.541V433.317C295.541 434.493 295.829 435.285 296.405 435.693C296.981 436.077 297.773 436.269 298.781 436.269V437.025C298.133 437.001 297.221 436.977 296.045 436.953C294.893 436.905 293.669 436.881 292.373 436.881C291.437 436.881 290.513 436.905 289.601 436.953C288.689 436.977 288.005 437.001 287.549 437.025V436.269C288.341 436.269 288.893 436.089 289.205 435.729C289.541 435.369 289.709 434.685 289.709 433.677V419.133H287.405V418.413H289.709C289.709 416.997 289.781 415.821 289.925 414.885C290.093 413.925 290.345 413.121 290.681 412.473C291.041 411.801 291.521 411.201 292.121 410.673C292.649 410.169 293.369 409.749 294.281 409.413C295.217 409.053 296.213 408.873 297.269 408.873ZM309.352 417.873C311.152 417.873 312.724 418.197 314.068 418.845C315.436 419.469 316.492 420.501 317.236 421.941C318.004 423.381 318.388 425.301 318.388 427.701C318.388 430.101 318.004 432.021 317.236 433.461C316.492 434.901 315.436 435.945 314.068 436.593C312.724 437.217 311.152 437.529 309.352 437.529C307.576 437.529 306.004 437.217 304.636 436.593C303.292 435.945 302.236 434.901 301.468 433.461C300.7 432.021 300.316 430.101 300.316 427.701C300.316 425.301 300.7 423.381 301.468 421.941C302.236 420.501 303.292 419.469 304.636 418.845C306.004 418.197 307.576 417.873 309.352 417.873ZM309.352 418.593C308.512 418.593 307.804 419.313 307.228 420.753C306.676 422.169 306.4 424.485 306.4 427.701C306.4 430.917 306.676 433.245 307.228 434.685C307.804 436.101 308.512 436.809 309.352 436.809C310.216 436.809 310.924 436.101 311.476 434.685C312.028 433.245 312.304 430.917 312.304 427.701C312.304 424.485 312.028 422.169 311.476 420.753C310.924 419.313 310.216 418.593 309.352 418.593ZM328.047 408.873V433.677C328.047 434.685 328.203 435.369 328.515 435.729C328.851 436.089 329.415 436.269 330.207 436.269V437.025C329.751 437.001 329.055 436.977 328.119 436.953C327.183 436.905 326.223 436.881 325.239 436.881C324.279 436.881 323.295 436.905 322.287 436.953C321.303 436.977 320.559 437.001 320.055 437.025V436.269C320.847 436.269 321.399 436.089 321.711 435.729C322.047 435.369 322.215 434.685 322.215 433.677V413.157C322.215 412.101 322.059 411.321 321.747 410.817C321.459 410.289 320.895 410.025 320.055 410.025V409.269C320.823 409.341 321.567 409.377 322.287 409.377C323.391 409.377 324.423 409.341 325.383 409.269C326.343 409.173 327.231 409.041 328.047 408.873ZM338.887 443.793C337.327 443.793 335.959 443.661 334.783 443.397C333.607 443.157 332.695 442.785 332.047 442.281C331.399 441.801 331.075 441.213 331.075 440.517C331.075 439.797 331.411 439.137 332.083 438.537C332.755 437.961 333.787 437.505 335.179 437.169L335.503 437.745C335.095 438.153 334.807 438.549 334.639 438.933C334.471 439.341 334.387 439.737 334.387 440.121C334.387 441.105 334.831 441.861 335.719 442.389C336.607 442.917 337.831 443.181 339.391 443.181C340.471 443.181 341.407 443.025 342.199 442.713C342.991 442.425 343.603 442.005 344.035 441.453C344.467 440.901 344.683 440.253 344.683 439.509C344.683 438.813 344.419 438.225 343.891 437.745C343.387 437.265 342.355 437.025 340.795 437.025H338.707C337.675 437.025 336.787 436.893 336.043 436.629C335.299 436.365 334.723 435.993 334.315 435.513C333.931 435.033 333.739 434.433 333.739 433.713C333.739 432.633 334.159 431.721 334.999 430.977C335.839 430.209 337.003 429.501 338.491 428.853L338.815 429.141C338.455 429.357 338.107 429.609 337.771 429.897C337.459 430.185 337.303 430.569 337.303 431.049C337.303 431.817 337.759 432.201 338.671 432.201H342.379C343.819 432.201 345.091 432.369 346.195 432.705C347.299 433.017 348.163 433.545 348.787 434.289C349.435 435.009 349.759 435.957 349.759 437.133C349.759 438.333 349.375 439.437 348.607 440.445C347.839 441.453 346.651 442.257 345.043 442.857C343.459 443.481 341.407 443.793 338.887 443.793ZM339.355 429.357C337.915 429.357 336.631 429.153 335.503 428.745C334.399 428.337 333.523 427.713 332.875 426.873C332.227 426.009 331.903 424.917 331.903 423.597C331.903 422.277 332.227 421.197 332.875 420.357C333.523 419.517 334.399 418.893 335.503 418.485C336.631 418.077 337.915 417.873 339.355 417.873C340.771 417.873 342.043 418.077 343.171 418.485C344.299 418.893 345.187 419.517 345.835 420.357C346.483 421.197 346.807 422.277 346.807 423.597C346.807 424.917 346.483 426.009 345.835 426.873C345.187 427.713 344.299 428.337 343.171 428.745C342.043 429.153 340.771 429.357 339.355 429.357ZM339.355 428.709C339.883 428.709 340.303 428.337 340.615 427.593C340.951 426.849 341.119 425.517 341.119 423.597C341.119 421.677 340.951 420.357 340.615 419.637C340.303 418.893 339.883 418.521 339.355 418.521C338.803 418.521 338.371 418.893 338.059 419.637C337.747 420.357 337.591 421.677 337.591 423.597C337.591 425.517 337.747 426.849 338.059 427.593C338.371 428.337 338.803 428.709 339.355 428.709ZM345.079 421.005L344.323 420.753C344.707 419.769 345.295 418.977 346.087 418.377C346.903 417.753 347.791 417.441 348.751 417.441C349.543 417.441 350.131 417.657 350.515 418.089C350.923 418.521 351.127 419.085 351.127 419.781C351.127 420.477 350.935 421.017 350.551 421.401C350.191 421.761 349.759 421.941 349.255 421.941C348.823 421.941 348.427 421.797 348.067 421.509C347.707 421.197 347.503 420.741 347.455 420.141C347.407 419.517 347.623 418.737 348.103 417.801L348.319 418.017C347.431 418.329 346.747 418.713 346.267 419.169C345.811 419.625 345.415 420.237 345.079 421.005ZM360.945 417.873C363.057 417.873 364.713 418.497 365.913 419.745C367.113 420.993 367.713 423.045 367.713 425.901H356.157L356.121 425.217H362.817C362.865 424.041 362.817 422.961 362.673 421.977C362.529 420.969 362.289 420.165 361.953 419.565C361.641 418.965 361.221 418.665 360.693 418.665C359.973 418.665 359.361 419.181 358.857 420.213C358.353 421.245 358.041 422.997 357.921 425.469L358.065 425.721C358.017 425.985 357.993 426.261 357.993 426.549C357.993 426.813 357.993 427.101 357.993 427.413C357.993 429.069 358.209 430.389 358.641 431.373C359.097 432.357 359.661 433.053 360.333 433.461C361.005 433.869 361.701 434.073 362.421 434.073C362.829 434.073 363.285 434.013 363.789 433.893C364.293 433.773 364.821 433.521 365.373 433.137C365.925 432.753 366.453 432.189 366.957 431.445L367.569 431.661C367.305 432.597 366.849 433.521 366.201 434.433C365.577 435.321 364.773 436.065 363.789 436.665C362.805 437.241 361.617 437.529 360.225 437.529C358.641 437.529 357.225 437.205 355.977 436.557C354.729 435.885 353.733 434.841 352.989 433.425C352.269 431.985 351.909 430.113 351.909 427.809C351.909 425.529 352.305 423.657 353.097 422.193C353.889 420.729 354.969 419.649 356.337 418.953C357.705 418.233 359.241 417.873 360.945 417.873ZM374.289 408.873C375.153 408.873 375.933 409.233 376.629 409.953C377.325 410.673 377.673 411.657 377.673 412.905C377.673 413.985 377.529 415.149 377.241 416.397C376.953 417.645 376.617 419.001 376.233 420.465C375.849 421.905 375.501 423.417 375.189 425.001C374.877 426.585 374.685 428.241 374.613 429.969H373.965C373.869 428.241 373.665 426.585 373.353 425.001C373.041 423.417 372.693 421.905 372.309 420.465C371.925 419.001 371.589 417.645 371.301 416.397C371.037 415.149 370.905 413.985 370.905 412.905C370.905 411.657 371.217 410.673 371.841 409.953C372.489 409.233 373.305 408.873 374.289 408.873ZM374.289 431.661C375.297 431.661 376.101 431.913 376.701 432.417C377.301 432.921 377.601 433.641 377.601 434.577C377.601 435.537 377.301 436.269 376.701 436.773C376.101 437.277 375.297 437.529 374.289 437.529C373.233 437.529 372.417 437.277 371.841 436.773C371.265 436.269 370.977 435.537 370.977 434.577C370.977 433.641 371.265 432.921 371.841 432.417C372.417 431.913 373.233 431.661 374.289 431.661Z" fill="white"/>
<defs>
<filter id="filter0_d_1151_3508" x="0" y="340.573" width="560" height="163.427" filterUnits="userSpaceOnUse" color-interpolation-filters="sRGB">
<feFlood flood-opacity="0" result="BackgroundImageFix"/>
<feColorMatrix in="SourceAlpha" type="matrix" values="0 0 0 0 0 0 0 0 0 0 0 0 0 0 0 0 0 0 127 0" result="hardAlpha"/>
<feOffset dx="5" dy="10"/>
<feGaussianBlur stdDeviation="15"/>
<feColorMatrix type="matrix" values="0 0 0 0 0.4575 0 0 0 0 0.7396 0 0 0 0 1 0 0 0 1 0"/>
<feBlend mode="normal" in2="BackgroundImageFix" result="effect1_dropShadow_1151_3508"/>
<feBlend mode="normal" in="SourceGraphic" in2="effect1_dropShadow_1151_3508" result="shape"/>
</filter>
<linearGradient id="paint0_linear_1151_3508" x1="-290.196" y1="381.863" x2="-290.196" y2="383.407" gradientUnits="userSpaceOnUse">
<stop stop-color="#2801EA" stop-opacity="0.7"/>
<stop offset="1" stop-color="#00C4B4"/>
</linearGradient>
<linearGradient id="paint1_linear_1151_3508" x1="479.248" y1="135.099" x2="479.248" y2="309.541" gradientUnits="userSpaceOnUse">
<stop stop-color="#7B61FF"/>
<stop offset="1" stop-color="#70EFDE"/>
</linearGradient>
<linearGradient id="paint2_linear_1151_3508" x1="225.976" y1="142.805" x2="225.976" y2="293.762" gradientUnits="userSpaceOnUse">
<stop stop-color="#7B61FF"/>
<stop offset="1" stop-color="#70EFDE"/>
</linearGradient>
<linearGradient id="paint3_linear_1151_3508" x1="441.765" y1="-15.9942" x2="441.765" y2="164.088" gradientUnits="userSpaceOnUse">
<stop stop-color="#7B61FF"/>
<stop offset="1" stop-color="#70EFDE"/>
</linearGradient>
<linearGradient id="paint4_linear_1151_3508" x1="439.77" y1="72.671" x2="439.77" y2="132.671" gradientUnits="userSpaceOnUse">
<stop stop-color="#7B61FF"/>
<stop offset="1" stop-color="#70EFDE"/>
</linearGradient>
<linearGradient id="paint5_linear_1151_3508" x1="1168.58" y1="473.681" x2="1168.58" y2="364.681" gradientUnits="userSpaceOnUse">
<stop stop-color="#7B61FF"/>
<stop offset="1" stop-color="#70EFDE"/>
</linearGradient>
<clipPath id="clip0_1151_3508">
<rect width="366" height="383" fill="white" transform="translate(442)"/>
</clipPath>
</defs>
</svg>
