<svg width="110" height="110" viewBox="0 0 110 110" fill="none" xmlns="http://www.w3.org/2000/svg">
<g style="mix-blend-mode:hard-light">
<g style="mix-blend-mode:difference">
<rect x="37.6316" width="34.7368" height="110" rx="17.3684" fill="url(#paint0_linear_1085_3969)" fill-opacity="0.6"/>
</g>
<g style="mix-blend-mode:exclusion">
<rect x="110" y="37.6315" width="34.7368" height="110" rx="17.3684" transform="rotate(90 110 37.6315)" fill="url(#paint1_linear_1085_3969)" fill-opacity="0.6"/>
</g>
<g style="mix-blend-mode:saturation">
<path d="M37.6316 55C37.6316 45.4076 45.4077 37.6315 55 37.6315C64.5923 37.6315 72.3684 45.4076 72.3684 55C72.3684 64.5923 64.5923 72.3684 55 72.3684C45.4077 72.3684 37.6316 64.5923 37.6316 55Z" fill="url(#paint2_linear_1085_3969)"/>
<path d="M38.6316 55C38.6316 45.9599 45.96 38.6315 55 38.6315C64.04 38.6315 71.3684 45.9599 71.3684 55C71.3684 64.04 64.04 71.3684 55 71.3684C45.96 71.3684 38.6316 64.04 38.6316 55Z" stroke="white" stroke-opacity="0.6" stroke-width="2"/>
</g>
<path d="M97.75 56.2991L100 55L97.75 53.701L76.75 41.5766L74.5 40.2776V42.8757V67.1244V69.7225L76.75 68.4234L97.75 56.2991Z" stroke="#FFF9F9" stroke-opacity="0.8" stroke-width="3"/>
<path d="M12.25 53.701L10 55L12.25 56.2991L33.25 68.4234L35.5 69.7225V67.1244V42.8757V40.2776L33.25 41.5766L12.25 53.701Z" stroke="#FFF9F9" stroke-opacity="0.8" stroke-width="3"/>
<path d="M53.701 97.75L55 100L56.299 97.75L68.4234 76.75L69.7224 74.5H67.1244L42.8756 74.5H40.2776L41.5766 76.75L53.701 97.75Z" stroke="#FFF9F9" stroke-opacity="0.8" stroke-width="3"/>
<path d="M56.299 12.25L55 10L53.701 12.25L41.5766 33.25L40.2776 35.5H42.8756H67.1244H69.7224L68.4234 33.25L56.299 12.25Z" stroke="#FFF9F9" stroke-opacity="0.8" stroke-width="3"/>
<g style="mix-blend-mode:luminosity">
<path d="M44.224 41.512C44.824 41.536 45.628 41.56 46.636 41.584C47.668 41.608 48.688 41.62 49.696 41.62C50.848 41.62 51.964 41.608 53.044 41.584C54.124 41.56 54.892 41.548 55.348 41.548C57.58 41.548 59.428 41.8 60.892 42.304C62.38 42.784 63.484 43.492 64.204 44.428C64.948 45.364 65.32 46.492 65.32 47.812C65.32 48.628 65.152 49.456 64.816 50.296C64.48 51.112 63.904 51.88 63.088 52.6C62.296 53.296 61.204 53.86 59.812 54.292C58.42 54.7 56.668 54.904 54.556 54.904H51.1V54.184H54.196C55.612 54.184 56.68 53.92 57.4 53.392C58.144 52.84 58.648 52.12 58.912 51.232C59.2 50.32 59.344 49.312 59.344 48.208C59.344 46.312 59.008 44.848 58.336 43.816C57.664 42.76 56.512 42.232 54.88 42.232C53.944 42.232 53.332 42.436 53.044 42.844C52.78 43.252 52.648 44.08 52.648 45.328V63.184C52.648 64.048 52.708 64.696 52.828 65.128C52.972 65.56 53.236 65.848 53.62 65.992C54.004 66.136 54.58 66.232 55.348 66.28V67C54.7 66.952 53.884 66.928 52.9 66.928C51.916 66.904 50.92 66.892 49.912 66.892C48.76 66.892 47.668 66.904 46.636 66.928C45.628 66.928 44.824 66.952 44.224 67V66.28C44.992 66.232 45.568 66.136 45.952 65.992C46.336 65.848 46.588 65.56 46.708 65.128C46.852 64.696 46.924 64.048 46.924 63.184V45.328C46.924 44.44 46.852 43.792 46.708 43.384C46.588 42.952 46.324 42.664 45.916 42.52C45.532 42.352 44.968 42.256 44.224 42.232V41.512ZM51.028 54.292C52.06 54.316 52.948 54.364 53.692 54.436C54.46 54.508 55.132 54.58 55.708 54.652C56.284 54.7 56.8 54.736 57.256 54.76C59.44 54.952 61.048 55.42 62.08 56.164C63.136 56.908 63.82 58.024 64.132 59.512L64.96 63.22C65.176 64.18 65.404 64.852 65.644 65.236C65.884 65.62 66.232 65.812 66.688 65.812C67 65.788 67.252 65.716 67.444 65.596C67.66 65.452 67.888 65.248 68.128 64.984L68.632 65.416C67.984 66.16 67.288 66.688 66.544 67C65.8 67.336 64.9 67.504 63.844 67.504C62.548 67.504 61.48 67.228 60.64 66.676C59.8 66.124 59.248 65.104 58.984 63.616L58.336 60.016C58.168 59.008 57.964 58.132 57.724 57.388C57.484 56.62 57.148 56.02 56.716 55.588C56.308 55.132 55.732 54.904 54.988 54.904H51.1L51.028 54.292Z" fill="url(#paint3_linear_1085_3969)"/>
</g>
</g>
<defs>
<linearGradient id="paint0_linear_1085_3969" x1="37.7643" y1="0.910762" x2="85.5852" y2="7.05005" gradientUnits="userSpaceOnUse">
<stop stop-color="#6200EE" stop-opacity="0.8"/>
<stop offset="0.96875" stop-color="#03DAC5" stop-opacity="0.8"/>
</linearGradient>
<linearGradient id="paint1_linear_1085_3969" x1="110.133" y1="38.5423" x2="157.954" y2="44.6816" gradientUnits="userSpaceOnUse">
<stop stop-color="#6200EE" stop-opacity="0.8"/>
<stop offset="0.96875" stop-color="#03DAC5" stop-opacity="0.8"/>
</linearGradient>
<linearGradient id="paint2_linear_1085_3969" x1="72.3684" y1="37.6315" x2="40.8158" y2="70.0526" gradientUnits="userSpaceOnUse">
<stop stop-color="#75BDFF" stop-opacity="0.9"/>
<stop offset="1" stop-color="#70EFDE" stop-opacity="0.3"/>
</linearGradient>
<linearGradient id="paint3_linear_1085_3969" x1="47.0526" y1="43" x2="60.3684" y2="63.2632" gradientUnits="userSpaceOnUse">
<stop stop-color="#6200EE" stop-opacity="0.7"/>
<stop offset="1" stop-color="#772277" stop-opacity="0.6"/>
</linearGradient>
</defs>
</svg>
